<?xml version="1.0" encoding="utf-8" standalone="no"?>
<!DOCTYPE svg PUBLIC "-//W3C//DTD SVG 1.1//EN" "http://www.w3.org/Graphics/SVG/1.1/DTD/svg11.dtd">
<svg xmlns="http://www.w3.org/2000/svg" viewBox="0 0 24 24">
    <path d="M19.68,6.39,19.32,6,17.46,7.9l.35.36a5.25,5.25,0,0,1,0,7.48l-.37.36L19.28,18l.36-.35a7.89,7.89,0,0,0,0-11.22Z" />
    <path d="M11.74,2.86H11a2.51,2.51,0,0,0-1.74.72L6.38,6.5H4.46A2.47,2.47,0,0,0,2,9V15A2.46,2.46,0,0,0,4.46,17.5h1.9l2.93,2.93a2.51,2.51,0,0,0,1.74.72h.71a2.46,2.46,0,0,0,2.46-2.46V5.32A2.46,2.46,0,0,0,11.74,2.86Zm-.69,15.79L8.12,15.72A2.47,2.47,0,0,0,6.38,15L4.49,15l0-6H6.38a2.45,2.45,0,0,0,1.74-.72L11,5.36h.68l0,13.28Z" />
</svg>
