<?xml version="1.0" encoding="utf-8" standalone="no"?>
<!DOCTYPE svg PUBLIC "-//W3C//DTD SVG 1.1//EN" "http://www.w3.org/Graphics/SVG/1.1/DTD/svg11.dtd">
<svg xmlns="http://www.w3.org/2000/svg" viewBox="0 0 24 24">
    <path d="M20.64,5.24l-4.19,4.2-.24.48,0,4,.17.5,4.29,4.35L22,18.19V5.81ZM18,13.53V10.47l2.14-2.14v7.34Z" />
    <path d="M11.92,5.32H5A3.28,3.28,0,0,0,2,8.78v6.41a3.3,3.3,0,0,0,3.05,3.49h6.86a3.29,3.29,0,0,0,3-3.45V8.81A3.29,3.29,0,0,0,11.92,5.32Zm1.18,9.93a1.37,1.37,0,0,1-1.22,1.45H5.09a1.38,1.38,0,0,1-1.25-1.48V8.75A1.37,1.37,0,0,1,5.06,7.3h6.79A1.38,1.38,0,0,1,13.1,8.78v6.47Z" />
    <path d="M10.68,8.35a1.37,1.37,0,1,0,1.37,1.37A1.37,1.37,0,0,0,10.68,8.35Z" />
    <path d="M10.68,12.91a1.37,1.37,0,1,0,1.37,1.37A1.37,1.37,0,0,0,10.68,12.91Z" />
</svg>
