<?xml version="1.0" encoding="utf-8" standalone="no"?>
<!DOCTYPE svg PUBLIC "-//W3C//DTD SVG 1.1//EN" "http://www.w3.org/Graphics/SVG/1.1/DTD/svg11.dtd">
<svg xmlns="http://www.w3.org/2000/svg" viewBox="0 0 24 24">
    <path d="M12.06,14.9h0a1.31,1.31,0,1,0,1.3,1.3A1.3,1.3,0,0,0,12.06,14.9Z" />
    <path d="M12,10.8a6.44,6.44,0,0,0-4.57,1.9L7.18,13,8.7,14.52l.3-.29a4.29,4.29,0,0,1,6.12,0l.29.29L16.94,13l-.29-.29A6.46,6.46,0,0,0,12,10.8Z" />
    <path d="M12.06,6.48A10.33,10.33,0,0,0,4.49,9.73L4.21,10l1.53,1.53L6,11.24a8.29,8.29,0,0,1,12.06,0l.29.31L19.91,10l-.28-.29A10.36,10.36,0,0,0,12.06,6.48Z" />
</svg>
