<?xml version="1.0" encoding="utf-8" standalone="no"?>
<!DOCTYPE svg PUBLIC "-//W3C//DTD SVG 1.1//EN" "http://www.w3.org/Graphics/SVG/1.1/DTD/svg11.dtd">
<svg xmlns="http://www.w3.org/2000/svg" viewBox="0 0 24 24">
    <path d="M19.74,8.54h-8.5A2.26,2.26,0,0,0,9,10.8v8.94A2.26,2.26,0,0,0,11.24,22h8.5A2.26,2.26,0,0,0,22,19.74V10.8A2.26,2.26,0,0,0,19.74,8.54Zm.17,11.2a.18.18,0,0,1-.17.18h-8.5a.18.18,0,0,1-.18-.18V10.8a.18.18,0,0,1,.18-.18h8.5a.18.18,0,0,1,.17.18Z" />
    <path d="M4.09,13.2V4.26a.18.18,0,0,1,.17-.18h8.5a.18.18,0,0,1,.18.18V7.08H15V4.26A2.26,2.26,0,0,0,12.76,2H4.26A2.26,2.26,0,0,0,2,4.26V13.2a2.26,2.26,0,0,0,2.26,2.26H7.52V13.38H4.26A.18.18,0,0,1,4.09,13.2Z" />
</svg>
