<?xml version="1.0" encoding="utf-8" standalone="no"?>
<!DOCTYPE svg PUBLIC "-//W3C//DTD SVG 1.1//EN" "http://www.w3.org/Graphics/SVG/1.1/DTD/svg11.dtd">
<svg xmlns="http://www.w3.org/2000/svg" viewBox="0 0 24 24">
    <path d="M11.84,2a10,10,0,1,0,10,10A10,10,0,0,0,11.84,2Zm0,17.92A7.92,7.92,0,1,1,19.75,12,7.93,7.93,0,0,1,11.84,19.92Z" />
    <path d="M12.55,11.43l0-4.47a1,1,0,1,0-2.08,0l0,5s0,.06,0,.09a.94.94,0,0,0,0,.16,1.42,1.42,0,0,0,.07.22l.1.14a1.25,1.25,0,0,0,.08.12l.07.05.05,0,4,3a1,1,0,0,0,1.25-1.68Z" />
</svg>
