
  <svg xmlns="http://www.w3.org/2000/svg" viewBox="0 0 24 24" width="1em" height="1em" class="MuiSvgIcon-root MuiSvgIcon-fontSizeMedium css-vubbuv" focusable="false" aria-hidden="true"><path d="m 12.141373,1.6344407 c -5.6557992,0 -10.2382284,4.5824291 -10.2382284,10.2382283 0,5.655794 4.5824292,10.238228 10.2382284,10.238228 5.655793,0 10.238228,-4.582434 10.238228,-10.238228 0,-5.6557992 -4.582435,-10.2382283 -10.238228,-10.2382283 z m 0,18.4948613 c -4.5535391,0 -8.2566383,-3.703099 -8.2566383,-8.256633 0,-4.5535388 3.7030992,-8.2566383 8.2566383,-8.2566383 4.553533,0 8.256632,3.7030995 8.256632,8.2566383 0,4.553534 -3.703099,8.256633 -8.256632,8.256633 z M 8.8387173,11.212139 c 0.7307116,0 1.3210597,-0.590354 1.3210597,-1.3210652 0,-0.7307116 -0.5903481,-1.32106 -1.3210597,-1.32106 -0.7307114,0 -1.3210598,0.5903484 -1.3210598,1.32106 0,0.7307112 0.5903484,1.3210652 1.3210598,1.3210652 z m 6.6053107,0 c 0.730711,0 1.32106,-0.590354 1.32106,-1.3210652 0,-0.7307116 -0.590349,-1.32106 -1.32106,-1.32106 -0.730712,0 -1.321065,0.5903484 -1.321065,1.32106 0,0.7307112 0.590353,1.3210652 1.321065,1.3210652 z m 0.165128,2.997158 c -0.858689,1.032079 -2.126083,1.626557 -3.467783,1.626557 -1.341706,0 -2.6091,-0.590348 -3.4677895,-1.626557 -0.3509078,-0.421089 -0.9784121,-0.474756 -1.3953716,-0.127978 -0.4210896,0.350908 -0.4747558,0.974282 -0.1279779,1.395372 1.2384983,1.486194 3.059085,2.336628 4.991139,2.336628 1.932054,0 3.75264,-0.850434 4.991133,-2.336628 0.350908,-0.42109 0.293112,-1.044464 -0.127978,-1.395372 -0.416959,-0.346778 -1.044464,-0.293111 -1.395372,0.127978 z"></path></svg>