<?xml version="1.0" encoding="utf-8" standalone="no"?>
<!DOCTYPE svg PUBLIC "-//W3C//DTD SVG 1.1//EN" "http://www.w3.org/Graphics/SVG/1.1/DTD/svg11.dtd">
<svg xmlns="http://www.w3.org/2000/svg" viewBox="0 0 24 24">
    <path d="M21.67,12h0A14,14,0,0,0,2.33,12a1.18,1.18,0,0,0-.33.81,1.06,1.06,0,0,0,.33.8l2,2a1.15,1.15,0,0,0,.8.34,1.13,1.13,0,0,0,.8-.32A9.19,9.19,0,0,1,8,14.14a1.11,1.11,0,0,0,.64-1V10.87A11.51,11.51,0,0,1,12,10.38h0a11.32,11.32,0,0,1,3.32.5v2.25a1.16,1.16,0,0,0,.64,1,8.69,8.69,0,0,1,2.07,1.43,1.16,1.16,0,0,0,.79.32h0a1.14,1.14,0,0,0,.81-.34l2-2A1.16,1.16,0,0,0,21.67,12Z" />
</svg>
