<?xml version="1.0" encoding="utf-8" standalone="no"?>
<!DOCTYPE svg PUBLIC "-//W3C//DTD SVG 1.1//EN" "http://www.w3.org/Graphics/SVG/1.1/DTD/svg11.dtd">
<svg xmlns="http://www.w3.org/2000/svg" viewBox="0 0 24 24">
    <path d="M18.69,7.37,17.21,8.86A8.26,8.26,0,0,1,19.76,12a8.46,8.46,0,0,1-4.64,4.31,8.57,8.57,0,0,1-5.58.22L7.93,18.14A10.7,10.7,0,0,0,12,19a10.57,10.57,0,0,0,3.84-.72,10.47,10.47,0,0,0,6-5.85L22,12l-.16-.38A10.34,10.34,0,0,0,18.69,7.37Z" />
    <path d="M5.33,16.62l1.46-1.47A8.31,8.31,0,0,1,4.24,12,8.49,8.49,0,0,1,12,7.11a8.85,8.85,0,0,1,2.48.36l1.61-1.62A10.76,10.76,0,0,0,12,5.05h0a10.51,10.51,0,0,0-9.84,6.57L2,12l.16.39A10.34,10.34,0,0,0,5.33,16.62Z" />
    <path d="M14.5,11.56a3.27,3.27,0,0,1,0,.44A2.54,2.54,0,0,1,12,14.54a3,3,0,0,1-.43,0L9.93,16.13a4.68,4.68,0,0,0,2.07.5,4.63,4.63,0,0,0,4.13-6.7Z" />
    <path d="M9.5,12.44a3.27,3.27,0,0,1,0-.44,2.54,2.54,0,0,1,2.21-2.52,1.94,1.94,0,0,0,0,.24,1.68,1.68,0,0,0,.07.5l2.35-2.35A4.67,4.67,0,0,0,12,7.38h0a4.62,4.62,0,0,0-4.13,6.69Z" />
    <rect x="-1.1" y="10.96" width="26.19" height="2.08" transform="translate(-4.97 12.01) rotate(-45.02)" />
</svg>
