<?xml version="1.0" encoding="utf-8" standalone="no"?>
<!DOCTYPE svg PUBLIC "-//W3C//DTD SVG 1.1//EN" "http://www.w3.org/Graphics/SVG/1.1/DTD/svg11.dtd">
<svg xmlns="http://www.w3.org/2000/svg" viewBox="0 0 24 24">
    <path d="M18.55,8.68H17.27V7.27a5.27,5.27,0,1,0-10.53,0V8.68H5.55a1.85,1.85,0,0,0-1.84,1.84v9.64A1.85,1.85,0,0,0,5.55,22h13a1.85,1.85,0,0,0,1.84-1.84V10.52A1.85,1.85,0,0,0,18.55,8.68ZM8.82,7.27a3.19,3.19,0,1,1,6.37,0V8.68H8.82ZM18.3,19.91H5.8V10.77H18.3Z" />
    <path d="M12.05,16.71a1.37,1.37,0,1,0-1.37-1.37A1.37,1.37,0,0,0,12.05,16.71Z" />
</svg>
