<?xml version="1.0" encoding="utf-8" standalone="no"?>
<!DOCTYPE svg PUBLIC "-//W3C//DTD SVG 1.1//EN" "http://www.w3.org/Graphics/SVG/1.1/DTD/svg11.dtd">
<svg xmlns="http://www.w3.org/2000/svg" viewBox="0 0 24 24">
    <rect x="12.45" y="2" width="2" height="4.32" />
    <rect x="8.97" y="2" width="2" height="4.32" />
    <path d="M17,4.32H16v2h1A1.88,1.88,0,0,1,18.84,8.2v9.93A1.88,1.88,0,0,1,17,20H7a1.88,1.88,0,0,1-1.88-1.87V8.2A1.88,1.88,0,0,1,7,6.32h.4v-2H7A3.88,3.88,0,0,0,3.16,8.2v9.93A3.88,3.88,0,0,0,7,22H17a3.88,3.88,0,0,0,3.88-3.87V8.2A3.88,3.88,0,0,0,17,4.32Z" />
    <path d="M9.49,11.6a1.25,1.25,0,0,0,0-2.5h0a1.25,1.25,0,1,0,0,2.5Z" />
    <path d="M13.24,10.35A1.25,1.25,0,1,0,14.49,9.1h0A1.25,1.25,0,0,0,13.24,10.35Z" />
    <path d="M14.49,14.1h0a1.25,1.25,0,1,0,1.25,1.25A1.25,1.25,0,0,0,14.49,14.1Z" />
    <path d="M9.49,16.6a1.25,1.25,0,0,0,0-2.5h0a1.25,1.25,0,1,0,0,2.5Z" />
</svg>
