<?xml version="1.0" encoding="utf-8" standalone="no"?>
<!DOCTYPE svg PUBLIC "-//W3C//DTD SVG 1.1//EN" "http://www.w3.org/Graphics/SVG/1.1/DTD/svg11.dtd">
<svg xmlns="http://www.w3.org/2000/svg" viewBox="0 0 24 24">
    <path d="M10.84,15.75h2.43a3.78,3.78,0,0,0,3.53-4V6a3.78,3.78,0,0,0-3.53-4H10.84A3.79,3.79,0,0,0,7.3,6v5.79A3.79,3.79,0,0,0,10.84,15.75Zm-1.8-4V6a1.93,1.93,0,0,1,1.8-2h2.43a1.92,1.92,0,0,1,1.79,2v5.79a1.92,1.92,0,0,1-1.79,2H10.84A1.93,1.93,0,0,1,9,11.77Z" />
    <path d="M17.69,9.44v3.21a4,4,0,0,1-4,4H10.28a4,4,0,0,1-4-4V9.44h-2v3.21a6,6,0,0,0,5.93,5.94h.62a.12.12,0,0,1,.12.12v1.21a.12.12,0,0,1-.12.12H7.75v2h8.5V20H13.1a.12.12,0,0,1-.12-.12V18.71a.12.12,0,0,1,.12-.12h.62a6,6,0,0,0,5.93-5.94V9.44Z" />
    <path d="M13,8.17a1.21,1.21,0,1,0,0-2.41h0a1.21,1.21,0,1,0,0,2.41Z" />
    <path d="M13,11.29a1.21,1.21,0,0,0,0-2.42h0a1.21,1.21,0,1,0,0,2.42Z" />
</svg>
