<?xml version="1.0" encoding="utf-8" standalone="no"?>
<!DOCTYPE svg PUBLIC "-//W3C//DTD SVG 1.1//EN" "http://www.w3.org/Graphics/SVG/1.1/DTD/svg11.dtd">
<svg xmlns="http://www.w3.org/2000/svg" viewBox="0 0 24 24">
    <path d="M19.34,4.3H4.65A2.68,2.68,0,0,0,2,7V17A2.68,2.68,0,0,0,4.65,19.7h8.12V17.62H4.65A.62.62,0,0,1,4,17V7.52l6.6,4a2.62,2.62,0,0,0,2.65,0L20,7.66v3h2V7A2.68,2.68,0,0,0,19.34,4.3Zm-7,5.47a.59.59,0,0,1-.6,0L6.15,6.38H18Z" />
    <path d="M21,14.29H18.67V12a1,1,0,1,0-2.08,0v2.29H14.3a1,1,0,0,0,0,2.08h2.29v2.29a1,1,0,0,0,2.08,0V16.37H21a1,1,0,0,0,0-2.08Z" />
</svg>
