<?xml version="1.0" encoding="utf-8" standalone="no"?>
<!DOCTYPE svg PUBLIC "-//W3C//DTD SVG 1.1//EN" "http://www.w3.org/Graphics/SVG/1.1/DTD/svg11.dtd">
<svg xmlns="http://www.w3.org/2000/svg" viewBox="0 0 24 24">
    <path d="M17.67,22H6.33A4.33,4.33,0,0,1,2,17.68V6.32A4.33,4.33,0,0,1,6.33,2H17.67A4.33,4.33,0,0,1,22,6.32V17.68A4.33,4.33,0,0,1,17.67,22ZM6.33,4.08A2.25,2.25,0,0,0,4.08,6.33V17.68a2.25,2.25,0,0,0,2.25,2.24H17.67a2.25,2.25,0,0,0,2.25-2.24V6.32a2.25,2.25,0,0,0-2.25-2.24Z" />
    <path d="M14.21,18.08l-5-5a.28.28,0,0,0-.39,0l-5,5L2.31,16.58l5-5a2.35,2.35,0,0,1,3.33,0l5,5Z" />
    <path d="M12.29,14.21l-1.47-1.47,4.11-4.11a2.08,2.08,0,0,1,2.91-.1l3.86,3.85-1.48,1.48L16.4,10Z" />
    <path d="M8.17,5.33A1.85,1.85,0,1,1,6.32,7.18h0A1.85,1.85,0,0,1,8.17,5.33h0" />
</svg>
