<?xml version="1.0" encoding="utf-8" standalone="no"?>
<!DOCTYPE svg PUBLIC "-//W3C//DTD SVG 1.1//EN" "http://www.w3.org/Graphics/SVG/1.1/DTD/svg11.dtd">
<svg xmlns="http://www.w3.org/2000/svg" viewBox="0 0 24 24">
    <path d="M21.7,20.3l-6-6.05a1,1,0,0,0-1.42,0,6.12,6.12,0,0,1-8,.26A5.79,5.79,0,0,1,5,6.83a6.09,6.09,0,0,1,7.65-2.25,5.84,5.84,0,0,1,3.26,7.1l.35.1h0l.34.11h0l.9.27h0l.35.1a7.88,7.88,0,0,0-4.21-9.47A8.17,8.17,0,0,0,3.42,5.44,7.8,7.8,0,0,0,4.56,15.71a8.23,8.23,0,0,0,10.28.62l5.44,5.39A1,1,0,0,0,21,22a1,1,0,0,0,.71-.28A1,1,0,0,0,21.7,20.3Z" />
</svg>
