<?xml version="1.0" encoding="utf-8" standalone="no"?>
<!DOCTYPE svg PUBLIC "-//W3C//DTD SVG 1.1//EN" "http://www.w3.org/Graphics/SVG/1.1/DTD/svg11.dtd">
<svg xmlns="http://www.w3.org/2000/svg" viewBox="0 0 24 24">
    <path d="M10.54,10.21H3a1,1,0,0,0,0,2.08h7.5a1,1,0,1,0,0-2.08Z" />
    <path d="M3,5.62H17.21a1,1,0,0,0,0-2.08H3A1,1,0,1,0,3,5.62Z" />
    <path d="M8.87,16.88H3A1,1,0,0,0,3,19H8.87a1,1,0,1,0,0-2.08Z" />
    <path d="M21.7,15a1.19,1.19,0,0,0-.72-.3,1,1,0,0,0-.73.3L18.32,17V9.73a1,1,0,0,0-2,0v7.11l-1.65-1.79a1,1,0,0,0-1.51,1.38l3.41,3.7h0a1,1,0,0,0,.73.33h0a1,1,0,0,0,.72-.3l3.7-3.7a1,1,0,0,0,0-1.44Z" />
</svg>
