<?xml version="1.0" encoding="utf-8" standalone="no"?>
<!DOCTYPE svg PUBLIC "-//W3C//DTD SVG 1.1//EN" "http://www.w3.org/Graphics/SVG/1.1/DTD/svg11.dtd">
<svg xmlns="http://www.w3.org/2000/svg" viewBox="0 0 24 24">
    <path d="M19.71,12.44H12.43V22h7.28A2.29,2.29,0,0,0,22,19.72V12.44H19.71Zm.2,7.28a.2.2,0,0,1-.2.2h-5a.2.2,0,0,1-.2-.2v-.35h0V15.06h0v-.34a.2.2,0,0,1,.2-.2h5a.2.2,0,0,1,.2.2v.34h0Z" />
    <path d="M19.71,2H4.29A2.3,2.3,0,0,0,2,4.29v7.34H22V4.29A2.3,2.3,0,0,0,19.71,2Zm.2,7.33a.2.2,0,0,1-.2.21H4.29a.2.2,0,0,1-.2-.21v-5a.2.2,0,0,1,.2-.2H19.71a.2.2,0,0,1,.2.2Z" />
    <path d="M9.28,12.44H2v7.28A2.28,2.28,0,0,0,4.28,22h7.29V12.44H9.28Zm.2,6.93h0v.35a.2.2,0,0,1-.2.2h-5a.2.2,0,0,1-.2-.2V15.06h0v-.34a.21.21,0,0,1,.2-.2h5a.2.2,0,0,1,.2.2v.34h0Z" />
</svg>
