<?xml version="1.0" encoding="utf-8" standalone="no"?>
<!DOCTYPE svg PUBLIC "-//W3C//DTD SVG 1.1//EN" "http://www.w3.org/Graphics/SVG/1.1/DTD/svg11.dtd">
<svg xmlns="http://www.w3.org/2000/svg" viewBox="0 0 24 24">
    <path d="M15.56,14.39a3.74,3.74,0,1,0-3.74-3.73A3.73,3.73,0,0,0,15.56,14.39Zm-1.67-3.73a1.67,1.67,0,1,1,1.67,1.67A1.67,1.67,0,0,1,13.89,10.66Z" />
    <path d="M15.56,15a6.45,6.45,0,0,0-6.44,6.44V22h2.06v-.52a4.38,4.38,0,1,1,8.75,0V22H22v-.52A6.45,6.45,0,0,0,15.56,15Z" />
    <path d="M8.44,12.19a4.33,4.33,0,0,1,1.53.29,6.41,6.41,0,0,1,1.09-.25,4.14,4.14,0,0,1-2.72-2.1A6.45,6.45,0,0,0,2,16.56v.53H4.06v-.53A4.38,4.38,0,0,1,8.44,12.19Z" />
    <path d="M8.05,9.44a3.93,3.93,0,0,1-.2-1.24,4.14,4.14,0,0,1,.09-.87A1.66,1.66,0,0,1,6.77,5.75a1.66,1.66,0,0,1,3-1,4.06,4.06,0,0,1,2-.65A3.73,3.73,0,1,0,8.05,9.44Z" />
    <path d="M12,14.65a4.33,4.33,0,0,1,1.53.29,7.53,7.53,0,0,1,1.09-.25,4.11,4.11,0,0,1-2.72-2.1A6.45,6.45,0,0,0,5.56,19v.52H7.62V19A4.39,4.39,0,0,1,12,14.65Z" />
    <path d="M11.61,11.9a3.93,3.93,0,0,1-.2-1.24,4.14,4.14,0,0,1,.09-.87,1.66,1.66,0,1,1,1.81-2.61,4.06,4.06,0,0,1,2-.65,3.73,3.73,0,1,0-3.71,5.37Z" />
</svg>
