<?xml version="1.0" encoding="utf-8" standalone="no"?>
<!DOCTYPE svg PUBLIC "-//W3C//DTD SVG 1.1//EN" "http://www.w3.org/Graphics/SVG/1.1/DTD/svg11.dtd">
<svg xmlns="http://www.w3.org/2000/svg" viewBox="0 0 24 24">
    <path d="M8.88,10.68a1.07,1.07,0,0,0,2.13,0h0v0h0a1.07,1.07,0,0,0-2.13,0h0v0Z" />
    <path d="M8.88,17.61a1.07,1.07,0,0,0,2.13,0h0a1.07,1.07,0,0,0-2.13,0h0Z" />
    <path d="M8.88,14.15a1.07,1.07,0,0,0,2.13,0h0a1.07,1.07,0,0,0-2.13,0h0Z" />
    <path d="M13,10.69a1.06,1.06,0,0,0,2.12,0h0v0h0a1.06,1.06,0,0,0-2.12,0h0v0Z" />
    <path d="M13,17.62a1.06,1.06,0,0,0,2.12,0h0a1.06,1.06,0,1,0-2.12,0h0Z" />
    <path d="M13,14.16a1.06,1.06,0,1,0,2.12,0h0a1.06,1.06,0,1,0-2.12,0h0Z" />
    <path d="M16.82,19.25a.9.9,0,0,1-.9.89H8.07a.89.89,0,0,1-.89-.89V8.58H5.05V19.25a3,3,0,0,0,3,3h7.85a3,3,0,0,0,3-3V8.58H16.82Z" />
    <path d="M20,5.43H4A1,1,0,0,0,3,6.5,1,1,0,0,0,4,7.56H20A1,1,0,0,0,21,6.5,1,1,0,0,0,20,5.43Z" />
    <path d="M10.6,4.41h2.79a1.07,1.07,0,1,0,0-2.13H10.6a1.07,1.07,0,0,0,0,2.13Z" />
</svg>
