<?xml version="1.0" encoding="utf-8" standalone="no"?>
<!DOCTYPE svg PUBLIC "-//W3C//DTD SVG 1.1//EN" "http://www.w3.org/Graphics/SVG/1.1/DTD/svg11.dtd">
<svg xmlns="http://www.w3.org/2000/svg" viewBox="0 0 24 24">
    <path d="M12,7.37h0A4.63,4.63,0,1,0,16.63,12,4.64,4.64,0,0,0,12,7.37Zm0,7.17a2.54,2.54,0,0,1-.33-5.06,2,2,0,0,0,.54,1.65,2,2,0,0,0,2.29.39,2.59,2.59,0,0,1,0,.48A2.54,2.54,0,0,1,12,14.54Z" />
    <path d="M21.85,11.61A10.56,10.56,0,0,0,12,5h0a10.56,10.56,0,0,0-9.85,6.57L2,12l.15.39a10.68,10.68,0,0,0,13.71,5.85,10.51,10.51,0,0,0,6-5.85L22,12Zm-6.73,4.7A8.6,8.6,0,0,1,4.24,12,8.48,8.48,0,0,1,12,7.11,8.47,8.47,0,0,1,19.76,12,8.46,8.46,0,0,1,15.12,16.31Z" />
</svg>
