<svg xmlns="http://www.w3.org/2000/svg" viewBox="0 0 1280 800">
	<defs>
		<linearGradient id="a-elevate-background" x1="1341.21" y1="503.12" x2="717.28" y2="412.39"
			gradientUnits="userSpaceOnUse">
			<stop offset="0.46" stop-color="#1c434f" />
			<stop offset="0.56" stop-color="#50714c" />
			<stop offset="0.68" stop-color="#87a149" />
			<stop offset="0.79" stop-color="#b0c446" />
			<stop offset="0.87" stop-color="#c8da45" />
			<stop offset="0.92" stop-color="#d2e245" />
		</linearGradient>
	</defs>
	<rect width="1280" height="800" fill="#20434f" />
	<g opacity="0.7">
		<path
			d="M734.66,483.12c0-18.5,12.85-45.65,24.63-71.54,31.06-69.07,46.05-108.53,46.05-154.16,0-62.9-35.33-102.37-104.94-102.37-88.18-5.08-193.32,68.07-407,270.1-4.28,0-4.28-3.7-4.28-8.63,0-21.86,9.7-54.78,22.19-84.47,8.83-22.19,25.84-45.1,26.59-65.14,3.51-46.22-44.31-69.57-85-55.34h0l0,0C194,229.79,100.28,303.51,0,374.07V514.16C62.23,475,119.93,434.34,167.28,404c-16,81.87-18,196.74,61.89,192.53,27.84,0,57.83-16,91-46.86C524.76,356.08,620.07,278.39,670.41,278.39c26.55,3.35,3.46,33.08-13.93,74C484.23,721.67,831.57,651.24,1029.2,542.91l7.63-137.59C970.12,444.56,741.25,555.19,734.66,483.12Z"
			fill="url(#a-elevate-background)" />
		<path
			d="M1280,187.41V0h-20.09c-102.31,150.18-169.3,234-223.08,405.32,0,0-19.39,52.17-7.63,137.59,16.65,77,75.41,106.69,162.29,106.69l1.45-8.2-1.45,8.2c32.79,0,61.61-3,88.51-8.69V516.52a248.83,248.83,0,0,1-66.5,8.9h0c-126.7-.89-35.55-180.44,66.5-338Z"
			fill="#d2e245" />
	</g>
</svg>