<?xml version="1.0" encoding="utf-8" standalone="no"?>
<!DOCTYPE svg PUBLIC "-//W3C//DTD SVG 1.1//EN" "http://www.w3.org/Graphics/SVG/1.1/DTD/svg11.dtd">
<svg xmlns="http://www.w3.org/2000/svg" viewBox="0 0 24 24">
    <path d="M10.13,11.67A4.62,4.62,0,1,0,5.51,7.05,4.62,4.62,0,0,0,10.13,11.67Zm0-7A2.42,2.42,0,1,1,7.71,7.05,2.43,2.43,0,0,1,10.13,4.63Z" />
    <path d="M20.9,15.41H18.48V13a1.1,1.1,0,0,0-2.2,0v2.42H13.86a1.1,1.1,0,0,0,0,2.2h2.42V20a1.1,1.1,0,0,0,2.2,0V17.61H20.9a1.1,1.1,0,0,0,0-2.2Z" />
    <path d="M2,21.13v.44H4.2v-.44a5.94,5.94,0,0,1,5.93-5.94,5.57,5.57,0,0,1,1.36.17l.58-2.12A7.76,7.76,0,0,0,10.13,13,8.15,8.15,0,0,0,2,21.13Z" />
</svg>
