
  <svg xmlns="http://www.w3.org/2000/svg" viewBox="0 0 24 24" width="1em" height="1em" class="MuiSvgIcon-root MuiSvgIcon-fontSizeMedium css-vubbuv" focusable="false" aria-hidden="true"><path
     d="m 4.4112649,16.293083 c 0,0.554703 0.4497823,1.004158 1.0041577,1.004158 h 2.0280503 c 0.333454,0.606638 0.7707714,1.145898 1.2959726,1.57729 L 7.9447752,21.09617 c -0.1869742,0.522343 0.084985,1.096989 0.6073346,1.283963 0.1117896,0.03988 0.2255405,0.05884 0.3379861,0.05884 0.4125147,0 0.7988811,-0.25594 0.9453207,-0.666172 l 0.6859064,-1.917566 c 0.547434,0.182234 1.123633,0.287115 1.715965,0.287115 0.594462,0 1.172087,-0.105296 1.716414,-0.28589 l 0.685458,1.916341 c 0.146439,0.410225 0.532806,0.666172 0.94532,0.666172 0.112446,0 0.226197,-0.01896 0.337986,-0.05884 0.522343,-0.186974 0.794303,-0.76162 0.607335,-1.283963 l -0.794918,-2.222335 c 0.530925,-0.436253 0.966689,-0.97572 1.296589,-1.576594 h 2.027682 c 0.554382,0 1.004157,-0.449455 1.004157,-1.004158 0,-0.554703 -0.449782,-1.004158 -1.004157,-1.004158 h -1.372711 c 0.02411,-0.209407 0.04037,-0.420768 0.04037,-0.635772 V 13.06651 h 1.332336 c 0.554382,0 1.004158,-0.449454 1.004158,-1.004157 0,-0.554704 -0.449783,-1.004158 -1.004158,-1.004158 h -1.33233 V 9.4715447 c 0,-0.215331 -0.01614,-0.426733 -0.04009,-0.635772 h 1.372423 c 0.554382,0 1.004157,-0.449454 1.004157,-1.004157 0,-0.554704 -0.449782,-1.004158 -1.004157,-1.004158 H 17.04148 c -0.2463,-0.450311 -0.554704,-0.872633 -0.921583,-1.239506 -0.122989,-0.122989 -0.254266,-0.23028 -0.384813,-0.337658 l 0.79471,-2.2217654 C 16.716769,2.5061856 16.444809,1.9315396 15.92246,1.7445654 15.399461,1.5569419 14.825471,1.8295507 14.639153,2.3519001 L 13.950227,4.2779682 C 12.842494,3.9218805 11.614751,3.9245783 10.523399,4.2753105 L 9.8354099,2.3519001 C 9.6490918,1.8295573 9.0737898,1.5569419 8.5521031,1.7445654 8.0297604,1.9315396 7.757801,2.5061856 7.9447752,3.0285283 l 0.794918,2.2223344 c -0.5309249,0.43626 -0.9666892,0.97572 -1.2965885,1.576601 H 5.4154226 c -0.5543821,0 -1.0041577,0.449455 -1.0041577,1.004158 0,0.554704 0.4497823,1.004158 1.0041577,1.004158 h 1.3727103 c -0.024107,0.209407 -0.040367,0.420769 -0.040367,0.635772 V 11.058195 H 5.4154226 c -0.5543821,0 -1.0041577,0.449454 -1.0041577,1.004158 0,0.554703 0.4497823,1.004157 1.0041577,1.004157 H 6.747759 v 1.58665 c 0,0.215204 0.01618,0.426613 0.040166,0.635772 H 5.4154226 c -0.5543754,-7e-6 -1.0041577,0.449448 -1.0041577,1.004151 z M 12.237288,5.9906657 c 0.63675,0 1.248008,0.169978 1.803695,0.513848 0.234698,0.131732 0.456972,0.301381 0.659631,0.50404 0.338642,0.338971 0.604717,0.746578 0.777961,1.201917 0.158858,0.391266 0.239927,0.81555 0.239927,1.261081 V 14.65316 c 0,0.445531 -0.08106,0.869814 -0.24646,1.276445 -0.277188,0.714545 -0.79038,1.317629 -1.467664,1.712497 -1.038152,0.643939 -2.472477,0.658326 -3.557697,-0.01438 C 9.7929341,17.24724 9.2797426,16.644157 8.9960145,15.914248 8.8371567,15.522981 8.7560877,15.098698 8.7560877,14.653166 V 9.4715587 c 0,-0.445531 0.081062,-0.869815 0.2464605,-1.276445 0.2771877,-0.714545 0.7903792,-1.317629 1.4676638,-1.712497 0.519069,-0.32198 1.130326,-0.491951 1.767076,-0.491951 z"></path>
</svg>
