<?xml version="1.0" encoding="utf-8"?>
<!-- Generator: Adobe Illustrator 16.0.4, SVG Export Plug-In . SVG Version: 6.00 Build 0)  -->
<!DOCTYPE svg PUBLIC "-//W3C//DTD SVG 1.1//EN" "http://www.w3.org/Graphics/SVG/1.1/DTD/svg11.dtd" [
	<!ENTITY ns_extend "http://ns.adobe.com/Extensibility/1.0/">
	<!ENTITY ns_ai "http://ns.adobe.com/AdobeIllustrator/10.0/">
	<!ENTITY ns_graphs "http://ns.adobe.com/Graphs/1.0/">
	<!ENTITY ns_vars "http://ns.adobe.com/Variables/1.0/">
	<!ENTITY ns_imrep "http://ns.adobe.com/ImageReplacement/1.0/">
	<!ENTITY ns_sfw "http://ns.adobe.com/SaveForWeb/1.0/">
	<!ENTITY ns_custom "http://ns.adobe.com/GenericCustomNamespace/1.0/">
	<!ENTITY ns_adobe_xpath "http://ns.adobe.com/XPath/1.0/">
]>
<svg version="1.1" id="Layer_1" xmlns:x="&ns_extend;" xmlns:i="&ns_ai;" xmlns:graph="&ns_graphs;" focusable="false"
	 xmlns="http://www.w3.org/2000/svg" xmlns:xlink="http://www.w3.org/1999/xlink" x="0px" y="0px" width="12px" height="12px"
	 viewBox="0 0 12 12" enable-background="new 0 0 12 12" xml:space="preserve">
<metadata>
	<sfw  xmlns="&ns_sfw;">
		<slices></slices>
		<sliceSourceBounds  height="9.997" width="5.641" y="415.345" x="294.947" bottomLeftOrigin="true"></sliceSourceBounds>
	</sfw>
</metadata>
<g>
	<path d="M4.307,10.523c-0.508-0.421-0.795-0.991-0.86-1.71h1.449C4.939,9.198,5.087,9.5,5.342,9.718
		c0.254,0.218,0.588,0.326,1.002,0.326c0.393,0,0.705-0.094,0.941-0.283c0.236-0.188,0.354-0.436,0.354-0.74
		c0-0.275-0.121-0.48-0.363-0.615C7.031,8.271,6.623,8.139,6.05,8.008L5.984,7.997C5.208,7.822,4.632,7.585,4.258,7.283
		C3.884,6.982,3.697,6.578,3.697,6.069c0-0.261,0.065-0.506,0.196-0.735c0.13-0.229,0.319-0.43,0.566-0.604
		C3.952,4.403,3.697,3.92,3.697,3.282c0-0.414,0.105-0.782,0.316-1.105s0.512-0.574,0.904-0.751s0.846-0.267,1.361-0.267
		c0.755,0,1.358,0.187,1.808,0.561c0.451,0.374,0.723,0.909,0.816,1.606H7.51C7.465,2.999,7.336,2.741,7.123,2.552
		C6.908,2.363,6.627,2.269,6.278,2.269c-0.334,0-0.61,0.087-0.828,0.262S5.124,2.918,5.124,3.173c0,0.261,0.112,0.45,0.337,0.566
		C5.694,3.877,6.089,4.004,6.648,4.12c0.85,0.182,1.469,0.425,1.857,0.729c0.389,0.305,0.582,0.726,0.582,1.263
		c0,0.495-0.236,0.94-0.707,1.339c0.238,0.16,0.416,0.356,0.533,0.588C9.029,8.272,9.088,8.56,9.088,8.9
		c0,0.436-0.109,0.824-0.326,1.166c-0.219,0.341-0.535,0.607-0.953,0.8s-0.91,0.289-1.476,0.289
		C5.491,11.155,4.815,10.944,4.307,10.523z M5.2,6.298c0.102,0.109,0.26,0.204,0.474,0.283c0.214,0.08,0.536,0.167,0.964,0.262
		c0.437,0.102,0.7,0.171,0.796,0.207c0.203-0.204,0.305-0.437,0.305-0.697c0-0.189-0.051-0.345-0.152-0.468
		c-0.109-0.116-0.26-0.21-0.453-0.283C6.941,5.529,6.645,5.441,6.246,5.34L5.952,5.264C5.705,5.213,5.523,5.166,5.407,5.122
		c-0.247,0.203-0.37,0.443-0.37,0.719C5.037,6.022,5.091,6.175,5.2,6.298z"/>
</g>
</svg>
