<?xml version="1.0" encoding="utf-8" standalone="no"?>
<!DOCTYPE svg PUBLIC "-//W3C//DTD SVG 1.1//EN" "http://www.w3.org/Graphics/SVG/1.1/DTD/svg11.dtd">
<svg xmlns="http://www.w3.org/2000/svg" viewBox="0 0 24 24">
    <path d="M10.55,13.4a1,1,0,0,0-1.48,0l-5,5V15.8A1,1,0,1,0,2,15.8v5A1.18,1.18,0,0,0,3.18,22h5a1,1,0,1,0,0-2.08H5.5l5.05-5.05A1.05,1.05,0,0,0,10.55,13.4Z" />
    <path d="M13.45,10.6a1,1,0,0,0,1.47,0l5-5V8.2A1,1,0,0,0,22,8.2v-5A1.19,1.19,0,0,0,20.81,2h-5a1,1,0,0,0,0,2.08h2.68l-5,5.05A1,1,0,0,0,13.45,10.6Z" />
</svg>
