<?xml version="1.0" encoding="utf-8" standalone="no"?>
<!DOCTYPE svg PUBLIC "-//W3C//DTD SVG 1.1//EN" "http://www.w3.org/Graphics/SVG/1.1/DTD/svg11.dtd">
<svg xmlns="http://www.w3.org/2000/svg" viewBox="0 0 24 24">
    <path d="M19.2,16.06l-1.46-1.47V10.92a6,6,0,0,0-5.09-6A5.91,5.91,0,0,0,6,10a6.47,6.47,0,0,0,0,.76v3.85L4.52,16.06a1.53,1.53,0,0,0-.45,1.13,1.59,1.59,0,0,0,1.58,1.58H8.28v.08a3.45,3.45,0,0,0,3.42,3.3h.15a3.45,3.45,0,0,0,3.6-3.3v-.07h2.62a1.59,1.59,0,0,0,1.13-.47,1.59,1.59,0,0,0,0-2.24Zm-8.81,2.78v-.07h2.95v.06A1.38,1.38,0,0,1,11.85,20,1.37,1.37,0,0,1,10.39,18.84ZM16.18,16l.64.64H6.9L7.53,16a1.88,1.88,0,0,0,.56-1.34V10.74A3.83,3.83,0,0,1,12.37,7a3.89,3.89,0,0,1,3.26,3.92v3.8A1.88,1.88,0,0,0,16.18,16Z" />
    <path d="M6.4,2.15A10.12,10.12,0,0,0,3,5.79L4.71,7A8.14,8.14,0,0,1,7.48,4Z" />
    <path d="M17.6,2.15a10.12,10.12,0,0,1,3.45,3.64L19.29,7a8.14,8.14,0,0,0-2.77-3Z" />
</svg>
