<svg xmlns="http://www.w3.org/2000/svg" viewBox="0 0 24 24">	<polygon points="3.438,13.841 1.977,13.841 1.977,21.196 7.071,21.196 7.071,19.947 3.438,19.947 	"/>
	<rect x="7.803" y="13.78" width="1.461" height="7.416"/>
	<polygon points="13.082,19.269 11.25,13.78 9.666,13.78 12.252,21.196 13.812,21.196 16.403,13.78 14.854,13.78 	"/>
	<path d="M14.166,11.798c0.364-0.47,0.59-1.052,0.59-1.691c0-1.532-1.244-2.777-2.777-2.777c-1.534,0-2.777,1.245-2.777,2.777
		c0,0.64,0.225,1.222,0.587,1.691H14.166z"/>
	<path d="M4.224,11.778C3.776,9.2,4.532,6.456,6.523,4.465c0.407-0.407,0.407-1.066,0-1.473s-1.067-0.407-1.473,0
		c-2.397,2.396-3.373,5.668-2.944,8.785H4.224z"/>
	<path d="M19.739,11.778h2.117c0.429-3.117-0.547-6.389-2.945-8.785c-0.406-0.407-1.065-0.407-1.473,0
		c-0.406,0.407-0.406,1.065,0,1.473C19.43,6.456,20.185,9.2,19.739,11.778z"/>
	<path d="M8.571,7.458c0.406-0.407,0.406-1.066,0-1.473c-0.407-0.406-1.067-0.406-1.474,0C5.523,7.56,5.015,9.763,5.505,11.778
		h2.147C7.1,10.326,7.4,8.627,8.571,7.458z"/>
	<path d="M18.623,11.778c0.492-2.015-0.017-4.218-1.593-5.793c-0.407-0.406-1.066-0.406-1.473,0c-0.407,0.407-0.407,1.066,0,1.473
		c1.172,1.17,1.471,2.868,0.919,4.32H18.623z"/>
	<polygon points="17.022,21.196 21.917,21.196 21.917,19.947 18.484,19.947 18.484,17.929 21.917,17.929 21.917,16.679 
		18.484,16.679 18.484,15.035 21.917,15.035 21.917,13.78 17.022,13.78"/>
</svg>
