<?xml version="1.0" encoding="utf-8" standalone="no"?>
<!DOCTYPE svg PUBLIC "-//W3C//DTD SVG 1.1//EN" "http://www.w3.org/Graphics/SVG/1.1/DTD/svg11.dtd">
<svg xmlns="http://www.w3.org/2000/svg" viewBox="0 0 24 24">
    <path d="M20.24,5.62c-.19-.06-.4-.12-.61-.2a5.51,5.51,0,0,1-1-.59,4.9,4.9,0,0,1-.76-.75,5.25,5.25,0,0,1-.6-1c0-.1-.07-.21-.11-.31a1,1,0,0,0-1-.75H7.8a1,1,0,0,0-1,.75c0,.1-.07.19-.1.29a5.24,5.24,0,0,1-.61,1,5.32,5.32,0,0,1-.75.75,5.26,5.26,0,0,1-1,.59c-.21.08-.42.14-.61.2a1,1,0,0,0-.75,1V9.08C3,9.51,3,10,3,10.4a13.19,13.19,0,0,0,.47,2.66A12.69,12.69,0,0,0,6,17.72a13.28,13.28,0,0,0,3.13,2.66l2.27,1.44h0l.06,0h0A1,1,0,0,0,12,22H12a.93.93,0,0,0,.46-.12l.15-.09,2.13-1.35.79-.52a12.63,12.63,0,0,0,2.05-1.76A12.67,12.67,0,0,0,21,9.34V6.61A1,1,0,0,0,20.24,5.62Zm-1.3,3.91a10.81,10.81,0,0,1-.09,1.39,11.56,11.56,0,0,1-.73,2.71A11.43,11.43,0,0,1,16.71,16a11.44,11.44,0,0,1-1.84,1.84c-.4.3-.82.57-1.23.83L12,19.76l-2-1.27c-.31-.19-.61-.4-.9-.62A11.86,11.86,0,0,1,7.26,16,12,12,0,0,1,5.85,13.6a11.22,11.22,0,0,1-.72-2.67h0A16.54,16.54,0,0,1,5,9.09V7.35a6,6,0,0,0,1.31-.7,6.63,6.63,0,0,0,1.82-2,6.08,6.08,0,0,0,.33-.62h7a6.39,6.39,0,0,0,3,3.1l.42.18Z" />
    <path d="M16.4,9.88a.61.61,0,0,0-.53-.42l-2.26-.33-1-2.05a.62.62,0,0,0-.83-.29.58.58,0,0,0-.29.29l-1,2.05-2.26.33a.61.61,0,0,0-.51.43.6.6,0,0,0,.16.62L9.5,12.1l-.4,2.25a.64.64,0,0,0,.25.63A.63.63,0,0,0,10,15L12,14l2,1.06a.6.6,0,0,0,.29.08h0a.59.59,0,0,0,.37-.12.62.62,0,0,0,.25-.62l-.4-2.26,1.63-1.57a.63.63,0,0,0,.2-.64Z" />
</svg>
