<?xml version="1.0" encoding="utf-8" standalone="no"?>
<!DOCTYPE svg PUBLIC "-//W3C//DTD SVG 1.1//EN" "http://www.w3.org/Graphics/SVG/1.1/DTD/svg11.dtd">
<svg xmlns="http://www.w3.org/2000/svg" viewBox="0 0 24 24">
    <path d="M11.82,10.33V21.75a.24.24,0,0,0,.4.19L16.9,18a.23.23,0,0,1,.31,0l4.38,3.89a.25.25,0,0,0,.41-.19V10.33Z" />
    <path d="M11.82,10.33V21.75a.24.24,0,0,0,.4.19L16.9,18a.23.23,0,0,1,.31,0l4.38,3.89a.25.25,0,0,0,.41-.19V10.33Z" />
    <path d="M11.4,9.92h5.68V6.17H6.91V17.58a.25.25,0,0,0,.4.2l4.09-3.43Z" />
    <path d="M6.49,5.75h5.68V2H2V13.41a.25.25,0,0,0,.4.2l4.09-3.43Z" />
</svg>
