<?xml version="1.0" encoding="utf-8" standalone="no"?>
<!DOCTYPE svg PUBLIC "-//W3C//DTD SVG 1.1//EN" "http://www.w3.org/Graphics/SVG/1.1/DTD/svg11.dtd">
<svg xmlns="http://www.w3.org/2000/svg" viewBox="0 0 24 24">
    <path d="M17.77,4.65a3,3,0,0,0-.61.08v0a2.69,2.69,0,0,0-5.11-1.2,2.53,2.53,0,0,0-.91-.17A2.7,2.7,0,0,0,8.44,6v4.86a2.7,2.7,0,0,0-4.58,2.86C6.57,19.45,8.51,22,12.8,22a7.68,7.68,0,0,0,7.67-7.68v-7A2.71,2.71,0,0,0,17.77,4.65Zm.62,9.67a5.6,5.6,0,0,1-5.59,5.6c-3,0-4.37-1.4-7.07-7.1l0-.07a.63.63,0,0,1,.22-.85.63.63,0,0,1,.85.23l1.82,3.15a1,1,0,0,0,1.17.49,1.06,1.06,0,0,0,.77-1V6a.62.62,0,0,1,.62-.62.61.61,0,0,1,.61.62v5.64h2.09v-7a.62.62,0,1,1,1.23,0v7h2.09V7.35a.61.61,0,0,1,.61-.61.61.61,0,0,1,.62.61Z" />
</svg>
