<?xml version="1.0" encoding="utf-8" standalone="no"?>
<!DOCTYPE svg PUBLIC "-//W3C//DTD SVG 1.1//EN" "http://www.w3.org/Graphics/SVG/1.1/DTD/svg11.dtd">
<svg xmlns="http://www.w3.org/2000/svg" viewBox="0 0 24 24">
    <path d="M20,17.69h0a2.32,2.32,0,0,1-2.3,2.3H13.46v2h4.23A4.3,4.3,0,0,0,22,17.69V13.47H20Z" />
    <path d="M20.73,3.26a4.31,4.31,0,0,0-3-1.26H13.46V4h4.23A2.32,2.32,0,0,1,20,6.3v4.23h2V6.3A4.31,4.31,0,0,0,20.73,3.26Z" />
    <path d="M4,6.3H4A2.32,2.32,0,0,1,6.29,4h4.23V2H6.29A4.3,4.3,0,0,0,2,6.3v4.23H4Z" />
    <path d="M6.29,20a2.3,2.3,0,0,1-2.12-1.41A2.25,2.25,0,0,1,4,17.7V13.47H2v4.22a4.17,4.17,0,0,0,.34,1.68,4.3,4.3,0,0,0,4,2.63h4.23V20Z" />
    <path d="M17,12a5,5,0,1,0-5,5A5,5,0,0,0,17,12Zm-5,3a3,3,0,1,1,3-3A3,3,0,0,1,12,15Z" />
</svg>
