<?xml version="1.0" encoding="utf-8" standalone="no"?>
<!DOCTYPE svg PUBLIC "-//W3C//DTD SVG 1.1//EN" "http://www.w3.org/Graphics/SVG/1.1/DTD/svg11.dtd">
<svg xmlns="http://www.w3.org/2000/svg" viewBox="0 0 24 24">
    <path d="M20.58,12.34,19.73,12l.85-.35a2.31,2.31,0,0,0,1.24-3l-.51-1.23v0a2.3,2.3,0,0,0-3-1.2l-.83.36.36-.84a2.31,2.31,0,0,0-1.24-3l-1.25-.51a2.3,2.3,0,0,0-3,1.24L12,4.25l-.34-.83a2.3,2.3,0,0,0-3-1.24l-1.24.51a2.3,2.3,0,0,0-1.25,3l.36.83-.84-.35a2.31,2.31,0,0,0-3,1.23L2.18,8.65a2.29,2.29,0,0,0,0,1.76,2.32,2.32,0,0,0,1.25,1.25l.85.33-.85.35a2.29,2.29,0,0,0-1.24,3l.51,1.24a2.27,2.27,0,0,0,1.24,1.25,2.33,2.33,0,0,0,1.76,0l.83-.36-.35.84a2.3,2.3,0,0,0,1.24,3l1.25.52a2.28,2.28,0,0,0,3-1.24l.34-.83.34.83a2.29,2.29,0,0,0,3,1.24l1.24-.51a2.3,2.3,0,0,0,1.24-3l-.36-.83.84.35a2.3,2.3,0,0,0,3-1.24l.51-1.25A2.29,2.29,0,0,0,20.58,12.34Zm-3.23,5.09ZM6.57,17.35Zm9.16-.7a1.87,1.87,0,0,0-.06,1.43l.4,1a.38.38,0,0,1-.21.5l-1.25.52a.37.37,0,0,1-.29,0,.39.39,0,0,1-.21-.21l-.4-1a1.83,1.83,0,0,0-3.39,0l-.39,1a.39.39,0,0,1-.51.21l-1.27-.52A.39.39,0,0,1,7.94,19l.4-1a1.81,1.81,0,0,0,.14-.69,1.89,1.89,0,0,0-.54-1.32,1.84,1.84,0,0,0-1.32-.55,1.66,1.66,0,0,0-.71.18l-1,.4a.39.39,0,0,1-.51-.21l-.52-1.25a.41.41,0,0,1,0-.29.38.38,0,0,1,.22-.21l.95-.4a1.85,1.85,0,0,0,1-1,1.85,1.85,0,0,0-1-2.43l-.95-.39a.38.38,0,0,1-.21-.51l.51-1.28A.39.39,0,0,1,5,7.93l1,.4A1.85,1.85,0,0,0,8.36,5.92L8,5a.37.37,0,0,1,0-.29.41.41,0,0,1,.21-.22L9.41,4a.39.39,0,0,1,.49.2l.39.95A1.84,1.84,0,0,0,12,6.24h0a1.83,1.83,0,0,0,1.7-1.14l.39-.95a.4.4,0,0,1,.51-.22l1.28.56a.38.38,0,0,1,.21.5l-.4,1a1.82,1.82,0,0,0,0,1.34,1.86,1.86,0,0,0,2.4,1.07L19,8a.39.39,0,0,1,.3,0,.43.43,0,0,1,.21.21l.51,1.25a.39.39,0,0,1-.24.5l-.95.4a1.83,1.83,0,0,0-1,1,1.86,1.86,0,0,0,1,2.43l.95.39a.39.39,0,0,1,.21.51l-.52,1.25a.38.38,0,0,1-.5.21l-1-.41a1.84,1.84,0,0,0-2.31,1Z" />
    <circle cx="12" cy="12" r="2.43" />
</svg>
