<?xml version="1.0" encoding="utf-8" standalone="no"?>
<!DOCTYPE svg PUBLIC "-//W3C//DTD SVG 1.1//EN" "http://www.w3.org/Graphics/SVG/1.1/DTD/svg11.dtd">
<svg xmlns="http://www.w3.org/2000/svg" viewBox="0 0 24 24"><g>	<path d="M18.916,6H12.33L9.623,3.293C9.436,3.105,9.181,3,8.916,3h-4c-1.654,0-3,1.346-3,3v11c0,1.654,1.346,3,3,3h7.667v-2H4.916
		c-0.551,0-1-0.448-1-1V6c0-0.551,0.449-1,1-1h3.586l2.707,2.707C11.396,7.895,11.651,8,11.916,8h7c0.552,0,1,0.449,1,1v2.543h2V9
		C21.916,7.346,20.57,6,18.916,6z"/><polygon points="18.168,11.884 16.283,11.884 16.283,14.688 13.456,14.688 13.456,16.625 16.283,16.625 16.283,19.431 
		18.168,19.431 18.168,16.625 21.003,16.625 21.003,14.688 18.168,14.688 	"/></g></svg>
