<?xml version="1.0" encoding="utf-8" standalone="no"?>
<!DOCTYPE svg PUBLIC "-//W3C//DTD SVG 1.1//EN" "http://www.w3.org/Graphics/SVG/1.1/DTD/svg11.dtd">
<svg xmlns="http://www.w3.org/2000/svg" viewBox="0 0 24 24">
    <path d="M2.86,13.38a2.05,2.05,0,0,0,1.19.38h0A2.07,2.07,0,0,0,5.74,10.5L8.37,7.86a2.09,2.09,0,0,0,2.39,0L12,9.12a2.07,2.07,0,1,0,3.36,2.41,2.06,2.06,0,0,0,0-2.41L18.7,5.79a2.09,2.09,0,1,0-.49-.49L14.88,8.63a2.08,2.08,0,0,0-2.38,0L11.24,7.37a2.07,2.07,0,1,0-3.36,0L5.24,10a2.06,2.06,0,0,0-2.38,3.37Z" />
    <path d="M21.11,10.62a2.09,2.09,0,0,0-2.9,2.92l-3.33,3.33a2,2,0,0,0-2.38,0l-1.26-1.26a2.07,2.07,0,1,0-3.36,0L5.24,18.25A2.06,2.06,0,1,0,4.05,22h0A2.05,2.05,0,0,0,6.12,20a2,2,0,0,0-.38-1.21L8.37,16.1a2.09,2.09,0,0,0,2.39,0L12,17.36a2.07,2.07,0,1,0,3.36,0L18.7,14a2.07,2.07,0,0,0,2.9-.49A2.1,2.1,0,0,0,21.11,10.62Z" />
</svg>
