<?xml version="1.0" encoding="utf-8" standalone="no"?>
<!DOCTYPE svg PUBLIC "-//W3C//DTD SVG 1.1//EN" "http://www.w3.org/Graphics/SVG/1.1/DTD/svg11.dtd">
<svg xmlns="http://www.w3.org/2000/svg" viewBox="0 0 24 24">
    <path d="M18.49,8.68H8.77V7.27a3.18,3.18,0,0,1,6-1.54l2-.68a5.25,5.25,0,0,0-10,2.22V8.68H5.5a1.85,1.85,0,0,0-1.84,1.84v9.64A1.85,1.85,0,0,0,5.5,22h13a1.85,1.85,0,0,0,1.85-1.84V10.52A1.85,1.85,0,0,0,18.49,8.68Zm-.24,11.23H5.75V10.77h12.5Z" />
    <path d="M12,16.71a1.37,1.37,0,1,0-1.37-1.37A1.37,1.37,0,0,0,12,16.71Z" />
</svg>
