<?xml version="1.0" encoding="utf-8" standalone="no"?>
<!DOCTYPE svg PUBLIC "-//W3C//DTD SVG 1.1//EN" "http://www.w3.org/Graphics/SVG/1.1/DTD/svg11.dtd">
<svg xmlns="http://www.w3.org/2000/svg" viewBox="0 0 24 24">
    <path d="M21.83,19.11,13.24,3.58h0A1.4,1.4,0,0,0,12,2.85a1.43,1.43,0,0,0-1.25.73L2.17,19.11a1.33,1.33,0,0,0,0,1.35,1.44,1.44,0,0,0,1.23.69H20.58a1.45,1.45,0,0,0,1.23-.69A1.38,1.38,0,0,0,21.83,19.11ZM4.61,19,12,5.67,19.38,19Z" />
    <path d="M12,16.5a.84.84,0,1,0,.84.84A.84.84,0,0,0,12,16.5Z" />
    <rect x="11.15" y="9.76" width="1.69" height="5.9" />
</svg>
